<mxfile host="app.diagrams.net" modified="2023-01-30T11:11:08.366Z" agent="5.0 (Windows NT 10.0; Win64; x64) AppleWebKit/537.36 (KHTML, like Gecko) Chrome/109.0.0.0 Safari/537.36" etag="0loRgp_tmvGbXTN1H0nM" version="20.8.13" type="github">
  <diagram id="YanXGWIZjUsFT7Ea5dJU" name="多渠道数据聚合">
    <mxGraphModel dx="2637" dy="418" grid="1" gridSize="10" guides="1" tooltips="1" connect="1" arrows="1" fold="1" page="0" pageScale="1" pageWidth="827" pageHeight="1169" math="0" shadow="0">
      <root>
        <mxCell id="0" />
        <mxCell id="1" parent="0" />
        <mxCell id="UY_DJ34q_6xtWu_Bd7H3-64" value="数据处理层" style="rounded=0;whiteSpace=wrap;html=1;fontSize=12;fillColor=#ffe6cc;strokeColor=#d79b00;align=right;" parent="1" vertex="1">
          <mxGeometry x="900" y="742" width="480" height="248" as="geometry" />
        </mxCell>
        <mxCell id="UY_DJ34q_6xtWu_Bd7H3-63" value="&lt;font style=&quot;font-size: 12px;&quot; color=&quot;#000000&quot;&gt;数据获取层&lt;/font&gt;" style="rounded=0;whiteSpace=wrap;html=1;fontSize=17;fillColor=#d5e8d4;strokeColor=#82b366;align=right;" parent="1" vertex="1">
          <mxGeometry x="900" y="610" width="480" height="100" as="geometry" />
        </mxCell>
        <mxCell id="UY_DJ34q_6xtWu_Bd7H3-62" value="数据处理层" style="rounded=0;whiteSpace=wrap;html=1;fontSize=12;fillColor=#ffe6cc;strokeColor=#d79b00;align=left;" parent="1" vertex="1">
          <mxGeometry x="-20" y="771" width="480" height="248" as="geometry" />
        </mxCell>
        <mxCell id="UY_DJ34q_6xtWu_Bd7H3-61" value="&lt;font style=&quot;font-size: 12px;&quot; color=&quot;#000000&quot;&gt;数据获取层&lt;/font&gt;" style="rounded=0;whiteSpace=wrap;html=1;fontSize=17;fillColor=#d5e8d4;strokeColor=#82b366;align=left;" parent="1" vertex="1">
          <mxGeometry x="-20" y="639" width="480" height="100" as="geometry" />
        </mxCell>
        <mxCell id="UY_DJ34q_6xtWu_Bd7H3-1" value="数据表" style="swimlane;fontStyle=0;childLayout=stackLayout;horizontal=1;startSize=26;horizontalStack=0;resizeParent=1;resizeParentMax=0;resizeLast=0;collapsible=1;marginBottom=0;align=center;fontSize=14;" parent="1" vertex="1">
          <mxGeometry x="-320" y="500" width="160" height="116" as="geometry" />
        </mxCell>
        <mxCell id="UY_DJ34q_6xtWu_Bd7H3-2" value="字段1" style="text;strokeColor=none;fillColor=none;spacingLeft=4;spacingRight=4;overflow=hidden;rotatable=0;points=[[0,0.5],[1,0.5]];portConstraint=eastwest;fontSize=12;" parent="UY_DJ34q_6xtWu_Bd7H3-1" vertex="1">
          <mxGeometry y="26" width="160" height="30" as="geometry" />
        </mxCell>
        <mxCell id="UY_DJ34q_6xtWu_Bd7H3-3" value="字段2" style="text;strokeColor=none;fillColor=none;spacingLeft=4;spacingRight=4;overflow=hidden;rotatable=0;points=[[0,0.5],[1,0.5]];portConstraint=eastwest;fontSize=12;" parent="UY_DJ34q_6xtWu_Bd7H3-1" vertex="1">
          <mxGeometry y="56" width="160" height="30" as="geometry" />
        </mxCell>
        <mxCell id="UY_DJ34q_6xtWu_Bd7H3-4" value="字段n" style="text;strokeColor=none;fillColor=none;spacingLeft=4;spacingRight=4;overflow=hidden;rotatable=0;points=[[0,0.5],[1,0.5]];portConstraint=eastwest;fontSize=12;" parent="UY_DJ34q_6xtWu_Bd7H3-1" vertex="1">
          <mxGeometry y="86" width="160" height="30" as="geometry" />
        </mxCell>
        <mxCell id="UY_DJ34q_6xtWu_Bd7H3-5" value="数据表" style="swimlane;fontStyle=0;childLayout=stackLayout;horizontal=1;startSize=26;horizontalStack=0;resizeParent=1;resizeParentMax=0;resizeLast=0;collapsible=1;marginBottom=0;align=center;fontSize=14;" parent="1" vertex="1">
          <mxGeometry x="650" y="510" width="160" height="116" as="geometry" />
        </mxCell>
        <mxCell id="UY_DJ34q_6xtWu_Bd7H3-6" value="字段1规范" style="text;strokeColor=none;fillColor=none;spacingLeft=4;spacingRight=4;overflow=hidden;rotatable=0;points=[[0,0.5],[1,0.5]];portConstraint=eastwest;fontSize=19;fontStyle=1;fontColor=#FF3333;" parent="UY_DJ34q_6xtWu_Bd7H3-5" vertex="1">
          <mxGeometry y="26" width="160" height="30" as="geometry" />
        </mxCell>
        <mxCell id="UY_DJ34q_6xtWu_Bd7H3-7" value="字段2规范" style="text;strokeColor=none;fillColor=none;spacingLeft=4;spacingRight=4;overflow=hidden;rotatable=0;points=[[0,0.5],[1,0.5]];portConstraint=eastwest;fontSize=12;" parent="UY_DJ34q_6xtWu_Bd7H3-5" vertex="1">
          <mxGeometry y="56" width="160" height="30" as="geometry" />
        </mxCell>
        <mxCell id="UY_DJ34q_6xtWu_Bd7H3-8" value="字段n规范" style="text;strokeColor=none;fillColor=none;spacingLeft=4;spacingRight=4;overflow=hidden;rotatable=0;points=[[0,0.5],[1,0.5]];portConstraint=eastwest;fontSize=12;" parent="UY_DJ34q_6xtWu_Bd7H3-5" vertex="1">
          <mxGeometry y="86" width="160" height="30" as="geometry" />
        </mxCell>
        <mxCell id="UY_DJ34q_6xtWu_Bd7H3-16" style="edgeStyle=orthogonalEdgeStyle;rounded=0;orthogonalLoop=1;jettySize=auto;html=1;entryX=0.5;entryY=0;entryDx=0;entryDy=0;" parent="1" source="UY_DJ34q_6xtWu_Bd7H3-9" target="UY_DJ34q_6xtWu_Bd7H3-12" edge="1">
          <mxGeometry relative="1" as="geometry" />
        </mxCell>
        <mxCell id="UY_DJ34q_6xtWu_Bd7H3-9" value="渠道a" style="ellipse;whiteSpace=wrap;html=1;aspect=fixed;" parent="1" vertex="1">
          <mxGeometry x="70" y="520" width="80" height="80" as="geometry" />
        </mxCell>
        <mxCell id="UY_DJ34q_6xtWu_Bd7H3-17" style="edgeStyle=orthogonalEdgeStyle;rounded=0;orthogonalLoop=1;jettySize=auto;html=1;entryX=0.75;entryY=0;entryDx=0;entryDy=0;" parent="1" source="UY_DJ34q_6xtWu_Bd7H3-10" target="UY_DJ34q_6xtWu_Bd7H3-12" edge="1">
          <mxGeometry relative="1" as="geometry" />
        </mxCell>
        <mxCell id="UY_DJ34q_6xtWu_Bd7H3-10" value="渠道b" style="ellipse;whiteSpace=wrap;html=1;aspect=fixed;" parent="1" vertex="1">
          <mxGeometry x="187" y="520" width="80" height="80" as="geometry" />
        </mxCell>
        <mxCell id="UY_DJ34q_6xtWu_Bd7H3-11" value="渠道..." style="ellipse;whiteSpace=wrap;html=1;aspect=fixed;" parent="1" vertex="1">
          <mxGeometry x="300" y="520" width="80" height="80" as="geometry" />
        </mxCell>
        <mxCell id="UY_DJ34q_6xtWu_Bd7H3-19" style="edgeStyle=orthogonalEdgeStyle;rounded=0;orthogonalLoop=1;jettySize=auto;html=1;entryX=0.5;entryY=0;entryDx=0;entryDy=0;" parent="1" source="UY_DJ34q_6xtWu_Bd7H3-12" target="UY_DJ34q_6xtWu_Bd7H3-14" edge="1">
          <mxGeometry relative="1" as="geometry" />
        </mxCell>
        <mxCell id="UY_DJ34q_6xtWu_Bd7H3-12" value="接收推送数据" style="rounded=1;whiteSpace=wrap;html=1;" parent="1" vertex="1">
          <mxGeometry x="70" y="659" width="120" height="60" as="geometry" />
        </mxCell>
        <mxCell id="UY_DJ34q_6xtWu_Bd7H3-18" style="edgeStyle=orthogonalEdgeStyle;rounded=0;orthogonalLoop=1;jettySize=auto;html=1;exitX=0.5;exitY=0;exitDx=0;exitDy=0;entryX=0.5;entryY=1;entryDx=0;entryDy=0;" parent="1" source="UY_DJ34q_6xtWu_Bd7H3-13" target="UY_DJ34q_6xtWu_Bd7H3-11" edge="1">
          <mxGeometry relative="1" as="geometry" />
        </mxCell>
        <mxCell id="UY_DJ34q_6xtWu_Bd7H3-20" style="edgeStyle=orthogonalEdgeStyle;rounded=0;orthogonalLoop=1;jettySize=auto;html=1;entryX=0.5;entryY=0;entryDx=0;entryDy=0;" parent="1" source="UY_DJ34q_6xtWu_Bd7H3-13" target="UY_DJ34q_6xtWu_Bd7H3-14" edge="1">
          <mxGeometry relative="1" as="geometry" />
        </mxCell>
        <mxCell id="UY_DJ34q_6xtWu_Bd7H3-13" value="拉取数据" style="rounded=1;whiteSpace=wrap;html=1;" parent="1" vertex="1">
          <mxGeometry x="260" y="659" width="120" height="60" as="geometry" />
        </mxCell>
        <mxCell id="UY_DJ34q_6xtWu_Bd7H3-26" value="" style="edgeStyle=orthogonalEdgeStyle;rounded=0;orthogonalLoop=1;jettySize=auto;html=1;" parent="1" source="UY_DJ34q_6xtWu_Bd7H3-14" target="UY_DJ34q_6xtWu_Bd7H3-25" edge="1">
          <mxGeometry relative="1" as="geometry" />
        </mxCell>
        <mxCell id="UY_DJ34q_6xtWu_Bd7H3-14" value="报文解析，数据检查" style="rounded=1;whiteSpace=wrap;html=1;" parent="1" vertex="1">
          <mxGeometry x="167" y="784" width="120" height="60" as="geometry" />
        </mxCell>
        <mxCell id="UY_DJ34q_6xtWu_Bd7H3-22" value="" style="shape=cylinder3;whiteSpace=wrap;html=1;boundedLbl=1;backgroundOutline=1;size=15;" parent="1" vertex="1">
          <mxGeometry x="197" y="1036" width="60" height="80" as="geometry" />
        </mxCell>
        <mxCell id="UY_DJ34q_6xtWu_Bd7H3-29" value="" style="edgeStyle=orthogonalEdgeStyle;rounded=0;orthogonalLoop=1;jettySize=auto;html=1;" parent="1" source="UY_DJ34q_6xtWu_Bd7H3-23" target="UY_DJ34q_6xtWu_Bd7H3-28" edge="1">
          <mxGeometry relative="1" as="geometry" />
        </mxCell>
        <mxCell id="_vcfyIfjb4H7fAwTlbhQ-1" value="" style="edgeStyle=orthogonalEdgeStyle;rounded=0;orthogonalLoop=1;jettySize=auto;html=1;fontSize=22;fontColor=#FF3333;" edge="1" parent="1" source="UY_DJ34q_6xtWu_Bd7H3-23" target="UY_DJ34q_6xtWu_Bd7H3-22">
          <mxGeometry relative="1" as="geometry" />
        </mxCell>
        <mxCell id="UY_DJ34q_6xtWu_Bd7H3-23" value="读取数据" style="rounded=1;whiteSpace=wrap;html=1;" parent="1" vertex="1">
          <mxGeometry x="20" y="1047" width="120" height="60" as="geometry" />
        </mxCell>
        <mxCell id="UY_DJ34q_6xtWu_Bd7H3-27" value="" style="edgeStyle=orthogonalEdgeStyle;rounded=0;orthogonalLoop=1;jettySize=auto;html=1;" parent="1" source="UY_DJ34q_6xtWu_Bd7H3-25" target="UY_DJ34q_6xtWu_Bd7H3-22" edge="1">
          <mxGeometry relative="1" as="geometry" />
        </mxCell>
        <mxCell id="UY_DJ34q_6xtWu_Bd7H3-25" value="数据落库" style="rounded=1;whiteSpace=wrap;html=1;" parent="1" vertex="1">
          <mxGeometry x="167" y="941" width="120" height="60" as="geometry" />
        </mxCell>
        <mxCell id="UY_DJ34q_6xtWu_Bd7H3-31" value="" style="edgeStyle=orthogonalEdgeStyle;rounded=0;orthogonalLoop=1;jettySize=auto;html=1;" parent="1" source="UY_DJ34q_6xtWu_Bd7H3-28" target="UY_DJ34q_6xtWu_Bd7H3-30" edge="1">
          <mxGeometry relative="1" as="geometry" />
        </mxCell>
        <mxCell id="UY_DJ34q_6xtWu_Bd7H3-28" value="不同渠道数据转换" style="rounded=1;whiteSpace=wrap;html=1;fontSize=17;" parent="1" vertex="1">
          <mxGeometry x="-150" y="1046" width="120" height="60" as="geometry" />
        </mxCell>
        <mxCell id="UY_DJ34q_6xtWu_Bd7H3-30" value="Actor" style="shape=umlActor;verticalLabelPosition=bottom;verticalAlign=top;html=1;outlineConnect=0;" parent="1" vertex="1">
          <mxGeometry x="-240" y="1046" width="30" height="60" as="geometry" />
        </mxCell>
        <mxCell id="UY_DJ34q_6xtWu_Bd7H3-32" style="edgeStyle=orthogonalEdgeStyle;rounded=0;orthogonalLoop=1;jettySize=auto;html=1;entryX=0.5;entryY=0;entryDx=0;entryDy=0;" parent="1" source="UY_DJ34q_6xtWu_Bd7H3-33" target="UY_DJ34q_6xtWu_Bd7H3-38" edge="1">
          <mxGeometry relative="1" as="geometry" />
        </mxCell>
        <mxCell id="UY_DJ34q_6xtWu_Bd7H3-33" value="渠道a" style="ellipse;whiteSpace=wrap;html=1;aspect=fixed;" parent="1" vertex="1">
          <mxGeometry x="975" y="500" width="80" height="80" as="geometry" />
        </mxCell>
        <mxCell id="UY_DJ34q_6xtWu_Bd7H3-34" style="edgeStyle=orthogonalEdgeStyle;rounded=0;orthogonalLoop=1;jettySize=auto;html=1;entryX=0.75;entryY=0;entryDx=0;entryDy=0;" parent="1" source="UY_DJ34q_6xtWu_Bd7H3-35" target="UY_DJ34q_6xtWu_Bd7H3-38" edge="1">
          <mxGeometry relative="1" as="geometry" />
        </mxCell>
        <mxCell id="UY_DJ34q_6xtWu_Bd7H3-35" value="渠道b" style="ellipse;whiteSpace=wrap;html=1;aspect=fixed;" parent="1" vertex="1">
          <mxGeometry x="1092" y="500" width="80" height="80" as="geometry" />
        </mxCell>
        <mxCell id="UY_DJ34q_6xtWu_Bd7H3-36" value="渠道..." style="ellipse;whiteSpace=wrap;html=1;aspect=fixed;" parent="1" vertex="1">
          <mxGeometry x="1205" y="500" width="80" height="80" as="geometry" />
        </mxCell>
        <mxCell id="UY_DJ34q_6xtWu_Bd7H3-37" style="edgeStyle=orthogonalEdgeStyle;rounded=0;orthogonalLoop=1;jettySize=auto;html=1;entryX=0.5;entryY=0;entryDx=0;entryDy=0;" parent="1" source="UY_DJ34q_6xtWu_Bd7H3-38" target="UY_DJ34q_6xtWu_Bd7H3-43" edge="1">
          <mxGeometry relative="1" as="geometry" />
        </mxCell>
        <mxCell id="UY_DJ34q_6xtWu_Bd7H3-38" value="接收推送数据" style="rounded=1;whiteSpace=wrap;html=1;" parent="1" vertex="1">
          <mxGeometry x="975" y="630" width="120" height="60" as="geometry" />
        </mxCell>
        <mxCell id="UY_DJ34q_6xtWu_Bd7H3-39" style="edgeStyle=orthogonalEdgeStyle;rounded=0;orthogonalLoop=1;jettySize=auto;html=1;exitX=0.5;exitY=0;exitDx=0;exitDy=0;entryX=0.5;entryY=1;entryDx=0;entryDy=0;" parent="1" source="UY_DJ34q_6xtWu_Bd7H3-41" target="UY_DJ34q_6xtWu_Bd7H3-36" edge="1">
          <mxGeometry relative="1" as="geometry" />
        </mxCell>
        <mxCell id="UY_DJ34q_6xtWu_Bd7H3-40" style="edgeStyle=orthogonalEdgeStyle;rounded=0;orthogonalLoop=1;jettySize=auto;html=1;entryX=0.5;entryY=0;entryDx=0;entryDy=0;" parent="1" source="UY_DJ34q_6xtWu_Bd7H3-41" target="UY_DJ34q_6xtWu_Bd7H3-43" edge="1">
          <mxGeometry relative="1" as="geometry" />
        </mxCell>
        <mxCell id="UY_DJ34q_6xtWu_Bd7H3-41" value="拉取数据" style="rounded=1;whiteSpace=wrap;html=1;" parent="1" vertex="1">
          <mxGeometry x="1165" y="630" width="120" height="60" as="geometry" />
        </mxCell>
        <mxCell id="UY_DJ34q_6xtWu_Bd7H3-55" value="" style="edgeStyle=orthogonalEdgeStyle;rounded=0;orthogonalLoop=1;jettySize=auto;html=1;fontSize=17;fontColor=#000000;" parent="1" source="UY_DJ34q_6xtWu_Bd7H3-43" target="UY_DJ34q_6xtWu_Bd7H3-54" edge="1">
          <mxGeometry relative="1" as="geometry">
            <Array as="points">
              <mxPoint x="1131" y="810" />
              <mxPoint x="1131" y="810" />
            </Array>
          </mxGeometry>
        </mxCell>
        <mxCell id="UY_DJ34q_6xtWu_Bd7H3-43" value="报文解析，数据检查" style="rounded=1;whiteSpace=wrap;html=1;" parent="1" vertex="1">
          <mxGeometry x="1072" y="755" width="120" height="60" as="geometry" />
        </mxCell>
        <mxCell id="UY_DJ34q_6xtWu_Bd7H3-44" value="" style="shape=cylinder3;whiteSpace=wrap;html=1;boundedLbl=1;backgroundOutline=1;size=15;" parent="1" vertex="1">
          <mxGeometry x="1102" y="1003" width="60" height="80" as="geometry" />
        </mxCell>
        <mxCell id="_vcfyIfjb4H7fAwTlbhQ-3" value="" style="edgeStyle=orthogonalEdgeStyle;rounded=0;orthogonalLoop=1;jettySize=auto;html=1;fontSize=22;fontColor=#FF3333;" edge="1" parent="1" source="UY_DJ34q_6xtWu_Bd7H3-47" target="UY_DJ34q_6xtWu_Bd7H3-44">
          <mxGeometry relative="1" as="geometry" />
        </mxCell>
        <mxCell id="UY_DJ34q_6xtWu_Bd7H3-47" value="读取数据" style="rounded=1;whiteSpace=wrap;html=1;" parent="1" vertex="1">
          <mxGeometry x="940" y="1013" width="120" height="60" as="geometry" />
        </mxCell>
        <mxCell id="UY_DJ34q_6xtWu_Bd7H3-48" value="" style="edgeStyle=orthogonalEdgeStyle;rounded=0;orthogonalLoop=1;jettySize=auto;html=1;exitX=0.5;exitY=1;exitDx=0;exitDy=0;entryX=0.5;entryY=0;entryDx=0;entryDy=0;entryPerimeter=0;" parent="1" source="UY_DJ34q_6xtWu_Bd7H3-49" target="UY_DJ34q_6xtWu_Bd7H3-44" edge="1">
          <mxGeometry relative="1" as="geometry">
            <mxPoint x="1132" y="985" as="sourcePoint" />
            <mxPoint x="1132" y="1062.9999999999998" as="targetPoint" />
          </mxGeometry>
        </mxCell>
        <mxCell id="UY_DJ34q_6xtWu_Bd7H3-49" value="数据落库" style="rounded=1;whiteSpace=wrap;html=1;" parent="1" vertex="1">
          <mxGeometry x="1072" y="912" width="120" height="60" as="geometry" />
        </mxCell>
        <mxCell id="_vcfyIfjb4H7fAwTlbhQ-2" value="" style="edgeStyle=orthogonalEdgeStyle;rounded=0;orthogonalLoop=1;jettySize=auto;html=1;fontSize=22;fontColor=#FF3333;" edge="1" parent="1" source="UY_DJ34q_6xtWu_Bd7H3-52" target="UY_DJ34q_6xtWu_Bd7H3-47">
          <mxGeometry relative="1" as="geometry" />
        </mxCell>
        <mxCell id="UY_DJ34q_6xtWu_Bd7H3-52" value="Actor" style="shape=umlActor;verticalLabelPosition=bottom;verticalAlign=top;html=1;outlineConnect=0;" parent="1" vertex="1">
          <mxGeometry x="850" y="1013" width="30" height="60" as="geometry" />
        </mxCell>
        <mxCell id="UY_DJ34q_6xtWu_Bd7H3-53" value="使用不便之处：&lt;br style=&quot;font-size: 22px;&quot;&gt;&lt;ol style=&quot;font-size: 22px;&quot;&gt;&lt;li style=&quot;font-size: 22px;&quot;&gt;无论什么展示场景使用数据，都必须对查询数据进行个性化转换。&lt;/li&gt;&lt;li style=&quot;font-size: 22px;&quot;&gt;难以根据具体字段进行统计。&lt;/li&gt;&lt;/ol&gt;" style="text;html=1;strokeColor=none;fillColor=none;align=left;verticalAlign=middle;whiteSpace=wrap;rounded=0;fontColor=#FF3333;fontStyle=1;fontSize=22;" parent="1" vertex="1">
          <mxGeometry x="-350" y="879" width="380" height="217" as="geometry" />
        </mxCell>
        <mxCell id="UY_DJ34q_6xtWu_Bd7H3-56" value="" style="edgeStyle=orthogonalEdgeStyle;rounded=0;orthogonalLoop=1;jettySize=auto;html=1;fontSize=17;fontColor=#000000;" parent="1" source="UY_DJ34q_6xtWu_Bd7H3-54" target="UY_DJ34q_6xtWu_Bd7H3-49" edge="1">
          <mxGeometry relative="1" as="geometry" />
        </mxCell>
        <mxCell id="UY_DJ34q_6xtWu_Bd7H3-54" value="&lt;b&gt;不同渠道数据转换&lt;/b&gt;" style="rounded=1;whiteSpace=wrap;html=1;fontSize=17;fontColor=#FF3333;" parent="1" vertex="1">
          <mxGeometry x="1071" y="833" width="120" height="60" as="geometry" />
        </mxCell>
        <mxCell id="UY_DJ34q_6xtWu_Bd7H3-58" value="落库之前,&lt;br style=&quot;font-size: 21px;&quot;&gt;严格按照数据表字段规范,&lt;br style=&quot;font-size: 21px;&quot;&gt;分渠道进行数据转换。&lt;br style=&quot;font-size: 21px;&quot;&gt;好处在于，数据表数据统一规范，无论视图展示还是统计，都可以直接查询。" style="text;html=1;strokeColor=none;fillColor=none;align=left;verticalAlign=middle;whiteSpace=wrap;rounded=0;fontSize=21;fontColor=#FF3333;fontStyle=1" parent="1" vertex="1">
          <mxGeometry x="800" y="750" width="272" height="213" as="geometry" />
        </mxCell>
        <mxCell id="UY_DJ34q_6xtWu_Bd7H3-59" value="&lt;b style=&quot;font-size: 21px;&quot;&gt;字段规范模糊或缺失,数据转换位于&lt;/b&gt;&lt;b style=&quot;border-color: var(--border-color); font-size: 21px;&quot;&gt;查询之后&lt;/b&gt;&lt;b style=&quot;font-size: 21px;&quot;&gt;&lt;br style=&quot;font-size: 21px;&quot;&gt;&lt;/b&gt;" style="text;html=1;strokeColor=none;fillColor=none;align=left;verticalAlign=middle;whiteSpace=wrap;rounded=0;fontSize=21;fontColor=#FF3333;" parent="1" vertex="1">
          <mxGeometry x="-320" y="425" width="610" height="60" as="geometry" />
        </mxCell>
        <mxCell id="UY_DJ34q_6xtWu_Bd7H3-60" value="&lt;b style=&quot;font-size: 21px;&quot;&gt;字段规范明确,数据转换位于落库之前&lt;br style=&quot;font-size: 21px;&quot;&gt;&lt;/b&gt;" style="text;html=1;strokeColor=none;fillColor=none;align=left;verticalAlign=middle;whiteSpace=wrap;rounded=0;fontSize=21;fontColor=#FF3333;" parent="1" vertex="1">
          <mxGeometry x="640" y="440" width="395" height="30" as="geometry" />
        </mxCell>
      </root>
    </mxGraphModel>
  </diagram>
</mxfile>
